<svg width="315" height="38" viewBox="0 0 315 38" fill="none" xmlns="http://www.w3.org/2000/svg">
<path d="M16.9345 13.8949V30.5399C14.4578 30.3147 11.9973 29.977 9.55278 29.5267C8.725 29.4289 7.90348 29.2839 7.09222 29.0925V13.8949C7.09222 13.7286 7.1583 13.569 7.27593 13.4514C7.39355 13.3338 7.55308 13.2677 7.71943 13.2677H16.3555C16.4358 13.2674 16.5152 13.2838 16.5888 13.3159C16.6624 13.348 16.7285 13.395 16.7829 13.454C16.8374 13.5129 16.879 13.5826 16.9051 13.6585C16.9311 13.7344 16.9412 13.8149 16.9345 13.8949Z" fill="url(#paint0_linear_2_881)"/>
<path d="M30.3952 6.1273V30.7811L25.474 30.8776C23.8337 30.8776 22.1933 30.8776 20.6012 30.7811V6.1273C20.6012 6.05127 20.6161 5.97598 20.6452 5.90574C20.6743 5.8355 20.717 5.77167 20.7707 5.71791C20.8245 5.66415 20.8883 5.62151 20.9586 5.59241C21.0288 5.56332 21.1041 5.54834 21.1801 5.54834H29.8162C29.9698 5.54834 30.117 5.60934 30.2256 5.71791C30.3342 5.82649 30.3952 5.97375 30.3952 6.1273Z" fill="url(#paint1_linear_2_881)"/>
<path d="M43.9041 0.627205V29.0925L41.3953 29.5267C38.9348 29.9609 36.5225 30.2504 34.0619 30.4917V0.627205C34.0552 0.547219 34.0652 0.466715 34.0913 0.390806C34.1174 0.314897 34.159 0.245241 34.2134 0.186261C34.2679 0.127282 34.334 0.0802672 34.4076 0.0482026C34.4811 0.0161381 34.5606 -0.000275723 34.6408 3.50362e-06H43.5182C43.6363 0.0559866 43.7356 0.145045 43.8041 0.256375C43.8727 0.367705 43.9074 0.496524 43.9041 0.627205Z" fill="url(#paint2_linear_2_881)"/>
<path d="M0.434227 29.0443C4.56659 30.1338 8.75381 31.0035 12.9783 31.6496C17.1121 32.2905 21.2909 32.5971 25.4741 32.5663C29.6564 32.5748 33.8335 32.2683 37.9698 31.6496C42.119 31.0224 46.2682 30.1057 50.5139 29.0443C50.5642 29.0204 50.6196 29.0092 50.6752 29.0119C50.7309 29.0146 50.785 29.031 50.8327 29.0597C50.8805 29.0883 50.9204 29.1283 50.949 29.1762C50.9775 29.224 50.9938 29.2781 50.9963 29.3338C51.0098 29.4171 50.9988 29.5025 50.9645 29.5796C50.9302 29.6567 50.8742 29.7222 50.8034 29.768C47.1017 32.2212 43.029 34.0621 38.7418 35.2198C34.4213 36.417 29.9573 37.0176 25.4741 37.0049C21.0044 37.0018 16.5564 36.3849 12.2546 35.1716C7.94828 34.0251 3.85792 32.1836 0.144749 29.7197C0.0750472 29.6631 0.0272756 29.5839 0.00966266 29.4959C-0.00795029 29.4078 0.005698 29.3164 0.0482568 29.2373C0.0901894 29.1743 0.147868 29.1233 0.215571 29.0894C0.283275 29.0556 0.358652 29.04 0.434227 29.0443Z" fill="url(#paint3_linear_2_881)"/>
<g style="mix-blend-mode:soft-light" opacity="0.34">
<path d="M16.9345 13.8949V25.0398C13.5592 24.8789 10.2337 24.1617 7.09222 22.917V13.8949C7.09222 13.7286 7.1583 13.569 7.27593 13.4514C7.39355 13.3338 7.55308 13.2677 7.71943 13.2677H16.3555C16.4358 13.2674 16.5152 13.2838 16.5888 13.3159C16.6624 13.348 16.7285 13.395 16.7829 13.454C16.8374 13.5129 16.879 13.5826 16.9051 13.6585C16.9311 13.7344 16.9412 13.8149 16.9345 13.8949Z" fill="white"/>
</g>
<g style="mix-blend-mode:soft-light" opacity="0.34">
<path d="M30.3952 6.1273V22.7723C27.2727 24.0467 23.966 24.8123 20.6012 25.0398V6.1273C20.6012 5.97375 20.6622 5.82649 20.7707 5.71791C20.8793 5.60934 21.0266 5.54834 21.1801 5.54834H29.8162C29.9698 5.54834 30.117 5.60934 30.2256 5.71791C30.3342 5.82649 30.3952 5.97375 30.3952 6.1273Z" fill="white"/>
</g>
<g style="mix-blend-mode:soft-light" opacity="0.34">
<path d="M43.9041 0.627205V12.0616C41.2779 15.6871 37.9261 18.7267 34.0619 20.9871V0.627205C34.0552 0.547219 34.0652 0.466715 34.0913 0.390806C34.1174 0.314897 34.159 0.245241 34.2134 0.186261C34.2679 0.127282 34.334 0.0802672 34.4076 0.0482026C34.4811 0.0161381 34.5606 -0.000275723 34.6408 3.50362e-06H43.5182C43.6363 0.0559866 43.7356 0.145045 43.8041 0.256375C43.8727 0.367705 43.9074 0.496524 43.9041 0.627205Z" fill="white"/>
</g>
<g style="mix-blend-mode:soft-light" opacity="0.56">
<path d="M16.9345 13.8949V22.0003C15.873 22.0968 14.7634 22.145 13.702 22.145C11.4816 22.1428 9.26714 21.9165 7.09222 21.4696V13.8949C7.09222 13.7286 7.1583 13.569 7.27593 13.4514C7.39355 13.3338 7.55308 13.2677 7.71943 13.2677H16.3555C16.4358 13.2674 16.5152 13.2838 16.5888 13.3159C16.6624 13.348 16.7285 13.395 16.7829 13.454C16.8374 13.5129 16.879 13.5826 16.9051 13.6585C16.9311 13.7344 16.9412 13.8149 16.9345 13.8949Z" fill="white"/>
</g>
<g style="mix-blend-mode:soft-light" opacity="0.56">
<path d="M30.3952 6.1273V17.2722C27.4071 19.2236 24.0881 20.6133 20.6012 21.3731V6.1273C20.6012 5.97375 20.6622 5.82649 20.7707 5.71791C20.8793 5.60934 21.0266 5.54834 21.1801 5.54834H29.8162C29.9698 5.54834 30.117 5.60934 30.2256 5.71791C30.3342 5.82649 30.3952 5.97375 30.3952 6.1273Z" fill="white"/>
</g>
<g style="mix-blend-mode:soft-light" opacity="0.56">
<path d="M43.5182 0.0482498C41.7903 5.67997 38.5135 10.7122 34.0619 14.5704V0.627205C34.0552 0.547219 34.0652 0.466715 34.0913 0.390806C34.1174 0.314897 34.159 0.245241 34.2134 0.186261C34.2679 0.127282 34.334 0.0802672 34.4076 0.0482026C34.4811 0.0161381 34.5606 -0.000275723 34.6408 3.50362e-06H43.5182V0.0482498Z" fill="white"/>
</g>
<path d="M77.0011 18.0924V17.9476C78.7862 16.8862 79.7029 15.1011 79.7029 12.5923C79.7029 10.0835 79.0274 8.82906 77.773 7.67115C76.5186 6.51324 74.7335 5.98253 72.4177 5.98253H62.5754C62.2501 5.93996 61.921 6.02656 61.6588 6.22376C61.5489 6.35733 61.4667 6.51144 61.417 6.67711C61.3673 6.84278 61.351 7.01669 61.3693 7.18869V29.9609C61.3286 30.1255 61.3321 30.2978 61.3792 30.4607C61.4263 30.6235 61.5155 30.771 61.6378 30.8884C61.7601 31.0058 61.9111 31.0889 62.0757 31.1293C62.2403 31.1698 62.4127 31.1662 62.5754 31.1188H72.6107C75.023 31.1188 76.9528 30.5399 78.4002 29.3337C79.8476 28.1276 80.6195 26.3907 80.6195 24.2196C80.6195 20.9871 79.4134 18.9608 77.0011 18.0924ZM65.8079 10.1317H71.887C74.058 10.1317 75.1677 11.1449 75.1677 13.2195C75.1677 15.2941 74.058 16.3555 71.887 16.3555H65.8079V10.1317ZM72.5142 26.9697H65.8079V20.4082H72.5142C74.7817 20.4082 75.8914 21.5178 75.8914 23.7372C75.8914 25.9565 74.7817 26.9697 72.5142 26.9697Z" fill="#3B5998"/>
<path d="M93.9355 12.4476C93.6735 12.2937 93.3696 12.2261 93.0671 12.2546H91.9092C89.2556 12.3028 87.0363 12.6406 85.3477 13.316C84.8966 13.459 84.4952 13.7266 84.1898 14.0879C84.0065 14.4796 83.9236 14.9107 83.9485 15.3423V30.0575C83.9261 30.3511 84.0119 30.6429 84.1898 30.8776C84.3096 30.9764 84.4488 31.0489 84.5984 31.0904C84.748 31.132 84.9046 31.1417 85.0582 31.1189H86.9881C87.1416 31.1417 87.2983 31.132 87.4479 31.0904C87.5975 31.0489 87.7367 30.9764 87.8565 30.8776C88.0173 30.6363 88.0858 30.3452 88.0495 30.0575V16.838C88.0488 16.7307 88.0879 16.627 88.1591 16.5468C88.2304 16.4666 88.3288 16.4157 88.4354 16.4038C89.5197 16.1102 90.6417 15.9801 91.7644 16.0178H93.0671C93.2239 16.0311 93.3818 16.0123 93.5311 15.9625C93.6804 15.9127 93.818 15.8331 93.9355 15.7283C94.1134 15.4935 94.1992 15.2018 94.1767 14.9081V13.316C94.1908 13.0082 94.1063 12.704 93.9355 12.4476Z" fill="#3B5998"/>
<path d="M109.712 14.1362C108.265 12.8818 106.238 12.2546 103.633 12.2546C101.028 12.2546 99.0014 12.8818 97.6022 14.1362C96.2031 15.3906 95.4794 17.1275 95.4794 19.3468V24.5574C95.4794 26.825 96.2031 28.5618 97.6022 29.8162C99.0014 31.0706 101.028 31.6978 103.633 31.6978C106.238 31.6978 108.265 31.0706 109.712 29.8162C111.159 28.5618 111.835 26.825 111.835 24.5574V19.3468C111.835 17.1275 111.111 15.3906 109.712 14.1362ZM107.734 24.5574C107.759 25.0333 107.671 25.5083 107.478 25.9441C107.285 26.3799 106.993 26.7643 106.624 27.0662C105.949 27.6451 104.936 27.9346 103.633 27.9346C102.33 27.9346 101.317 27.6451 100.642 27.0662C100.279 26.7619 99.9934 26.3758 99.8089 25.9396C99.6244 25.5035 99.546 25.0297 99.5803 24.5574V19.3468C99.546 18.8744 99.6244 18.4007 99.8089 17.9645C99.9934 17.5284 100.279 17.1423 100.642 16.838C101.317 16.259 102.33 15.9695 103.633 15.9695C104.936 15.9695 105.949 16.259 106.624 16.838C106.993 17.1399 107.285 17.5243 107.478 17.9601C107.671 18.3959 107.759 18.8709 107.734 19.3468V24.5574Z" fill="#3B5998"/>
<path d="M130.989 29.8162L127.901 23.6407C127.177 22.1451 126.309 21.1801 125.344 20.6977L130.699 14.0397C131.375 13.2195 131.133 12.7853 129.976 12.7853H128.239C127.786 12.7757 127.334 12.808 126.888 12.8818C126.563 13.0394 126.294 13.2918 126.116 13.6055L121.291 19.8775H119.458V6.0308C119.488 5.72143 119.402 5.41196 119.217 5.16237C119.072 4.96938 118.782 4.87289 118.3 4.87289H116.515C116.35 4.85268 116.183 4.86806 116.025 4.918C115.867 4.96795 115.721 5.05128 115.598 5.16237C115.405 5.30711 115.357 5.59658 115.357 6.0308V30.0092C115.357 30.4434 115.405 30.7329 115.598 30.8776C115.791 31.0224 116.081 31.1189 116.515 31.1189H118.3C118.782 31.1189 119.072 31.0706 119.217 30.8776C119.402 30.628 119.488 30.3186 119.458 30.0092V23.6889H121.581C122.176 23.6496 122.77 23.7954 123.279 24.1063C123.789 24.4173 124.19 24.8781 124.427 25.4258L126.598 30.1539C126.731 30.478 126.947 30.7611 127.225 30.9741C127.633 31.0918 128.057 31.1407 128.48 31.1189H130.313C130.844 31.1189 131.133 31.0224 131.23 30.8294C131.326 30.6364 131.23 30.2987 130.989 29.8162Z" fill="#3B5998"/>
<path d="M147.73 23.2547C148.84 23.2547 149.371 22.7723 149.371 21.7591V19.588C149.396 18.6097 149.226 17.6362 148.87 16.7247C148.513 15.8133 147.978 14.9824 147.296 14.2809C145.897 12.93 143.87 12.2546 141.169 12.2546C138.467 12.2546 136.441 12.8818 135.041 14.1844C133.642 15.4871 132.919 17.4169 132.919 19.8775V24.0749C132.919 26.3907 133.594 28.2723 134.945 29.6232C136.296 30.9741 138.322 31.6978 141.072 31.6978C144.787 31.6978 147.344 30.5399 148.743 28.2723C149.274 27.4522 149.129 26.8732 148.309 26.4872L147.103 25.8118C146.96 25.704 146.796 25.627 146.622 25.5855C146.447 25.544 146.266 25.5389 146.09 25.5706C145.8 25.6188 145.559 25.86 145.27 26.246C144.433 27.5004 143.034 28.1276 141.072 28.1276C139.996 28.2043 138.929 27.8776 138.081 27.2109C137.405 26.632 137.068 25.7635 137.068 24.5574V23.2547H147.73ZM137.068 19.3468C137.033 18.8459 137.11 18.3434 137.293 17.876C137.477 17.4086 137.762 16.9881 138.129 16.645C138.805 16.0178 139.818 15.7283 141.169 15.7283C142.52 15.7283 143.533 16.0178 144.208 16.645C144.558 16.9983 144.83 17.4217 145.004 17.8874C145.179 18.353 145.253 18.8504 145.221 19.3468V20.1187H137.068V19.3468Z" fill="#3B5998"/>
<path d="M162.493 12.4476C162.252 12.2867 161.961 12.2182 161.673 12.2546H160.515C158.268 12.2255 156.031 12.5846 153.906 13.316C153.474 13.4712 153.092 13.7375 152.796 14.0879C152.613 14.4796 152.53 14.9107 152.555 15.3423V30.0575C152.555 30.4434 152.603 30.7329 152.796 30.8776C152.989 31.0224 153.23 31.1189 153.664 31.1189H155.594C155.98 31.1189 156.27 31.0706 156.414 30.8776C156.592 30.6429 156.678 30.3511 156.656 30.0575V16.838C156.653 16.7377 156.685 16.6397 156.747 16.5606C156.809 16.4814 156.896 16.426 156.993 16.4038C158.094 16.1104 159.232 15.9803 160.371 16.0178H161.673C161.823 16.0335 161.974 16.0156 162.116 15.9655C162.258 15.9155 162.387 15.8344 162.493 15.7283C162.686 15.5836 162.735 15.2941 162.735 14.9081V13.316C162.755 13.1625 162.744 13.0065 162.702 12.8573C162.661 12.7082 162.59 12.5688 162.493 12.4476Z" fill="#3B5998"/>
<path d="M179.717 6.22378C179.573 6.03079 179.235 5.98254 178.801 5.98254H162.108C161.673 5.98254 161.336 6.03079 161.191 6.22378C161.081 6.35734 160.999 6.51145 160.949 6.67712C160.899 6.84279 160.883 7.0167 160.901 7.1887V8.92557C160.884 9.09005 160.901 9.2563 160.951 9.41399C161.001 9.57169 161.082 9.71746 161.191 9.84225C161.314 9.95333 161.46 10.0367 161.618 10.0866C161.776 10.1366 161.943 10.1519 162.108 10.1317H168.235V29.9609C168.214 30.2846 168.298 30.6063 168.476 30.8776C168.753 31.0825 169.1 31.1692 169.441 31.1189H171.467C171.808 31.1692 172.155 31.0825 172.432 30.8776C172.629 30.6154 172.716 30.2863 172.673 29.9609V10.1317H178.801C178.965 10.1519 179.132 10.1366 179.291 10.0866C179.449 10.0367 179.594 9.95333 179.717 9.84225C179.826 9.71746 179.908 9.57169 179.957 9.41399C180.007 9.2563 180.024 9.09005 180.007 8.92557V7.1887C180.025 7.0167 180.009 6.84279 179.959 6.67712C179.91 6.51145 179.827 6.35734 179.717 6.22378Z" fill="#1DA1F2"/>
<path d="M186.327 12.2546C183.963 12.2546 182.13 12.737 180.779 13.7985C180.035 14.3663 179.426 15.0911 178.994 15.9213C178.608 16.645 178.801 17.1757 179.621 17.5134L181.02 18.1406C181.294 18.2585 181.596 18.2921 181.889 18.2371C182.082 18.1889 182.274 17.9959 182.564 17.6099C183.017 16.885 183.721 16.3525 184.542 16.1143C185.108 15.9565 185.692 15.8754 186.279 15.873C187.533 15.873 188.45 16.1625 188.981 16.7897C189.488 17.3832 189.777 18.1322 189.801 18.9126V20.4082L186.424 20.2152C183.529 20.2152 181.454 20.6494 180.248 21.5179C179.042 22.3863 178.367 23.8337 178.367 25.9083C178.367 27.9829 178.946 29.3338 180.055 30.2504C181.165 31.1671 183.288 31.6978 186.279 31.6978C189.27 31.6978 191.248 31.3601 192.647 30.7329C193.049 30.623 193.405 30.386 193.661 30.0575C193.884 29.644 193.985 29.1753 193.95 28.7066V19.5398C193.95 14.6669 191.393 12.2546 186.327 12.2546ZM189.801 27.5004C189.801 27.7416 189.704 27.8864 189.415 27.9829C188.255 28.2048 187.074 28.3018 185.893 28.2723C184.59 28.2723 183.722 28.0794 183.239 27.6934C182.998 27.467 182.812 27.1884 182.695 26.879C182.578 26.5697 182.533 26.2376 182.564 25.9083C182.539 25.5822 182.592 25.2549 182.718 24.9531C182.843 24.6512 183.039 24.3834 183.288 24.1714C183.77 23.7854 184.687 23.5925 185.941 23.5925L189.801 23.7854V27.5004Z" fill="#1DA1F2"/>
<path d="M207.604 12.4476C207.362 12.2867 207.071 12.2182 206.784 12.2546H205.626C202.972 12.3028 200.753 12.6405 199.064 13.316C198.613 13.459 198.212 13.7266 197.906 14.0879C197.723 14.4796 197.64 14.9107 197.665 15.3423V30.0575C197.643 30.3511 197.728 30.6429 197.906 30.8776C198.051 31.0706 198.34 31.1189 198.775 31.1189H200.705C201.091 31.1189 201.38 31.0706 201.525 30.8776C201.67 30.6847 201.766 30.4434 201.766 30.0575V16.838C201.765 16.7307 201.804 16.627 201.876 16.5468C201.947 16.4666 202.045 16.4157 202.152 16.4038C203.236 16.1102 204.358 15.9801 205.481 16.0178H206.784C206.933 16.0329 207.084 16.0145 207.225 15.9641C207.367 15.9136 207.495 15.8324 207.602 15.7261C207.708 15.6199 207.789 15.4914 207.84 15.35C207.89 15.2085 207.908 15.0576 207.893 14.9081V13.316C207.907 13.1592 207.888 13.0013 207.838 12.852C207.788 12.7026 207.709 12.565 207.604 12.4476Z" fill="#1DA1F2"/>
<path d="M214.069 12.9783C213.827 12.8174 213.536 12.7489 213.249 12.7853H211.27C210.983 12.7489 210.692 12.8174 210.45 12.9783C210.273 13.2316 210.188 13.5381 210.209 13.8467V30.0574C210.187 30.3511 210.272 30.6428 210.45 30.8776C210.595 31.0706 210.885 31.1189 211.27 31.1189H213.249C213.635 31.1189 213.924 31.0706 214.069 30.8776C214.214 30.6846 214.31 30.4434 214.31 30.0574V13.8467C214.333 13.6931 214.323 13.5365 214.282 13.3869C214.24 13.2373 214.168 13.0981 214.069 12.9783ZM214.069 6.36851C213.779 6.03079 213.2 5.88605 212.38 5.88605H212.139C211.319 5.88605 210.74 6.03079 210.402 6.36851C210.063 6.84467 209.909 7.42755 209.968 8.00888V8.34661C209.968 9.16679 210.113 9.74575 210.45 10.0352C210.937 10.3942 211.536 10.5656 212.139 10.5177H212.38C212.984 10.5747 213.587 10.4025 214.069 10.0352C214.407 9.74575 214.551 9.16679 214.551 8.34661V8.00888C214.551 7.23694 214.407 6.65799 214.069 6.36851Z" fill="#1DA1F2"/>
<path d="M232.595 23.2547C233.657 23.2547 234.187 22.7723 234.187 21.7591V19.588C234.225 18.6084 234.059 17.6316 233.703 16.7186C233.346 15.8055 232.804 14.9757 232.113 14.2809C230.714 12.93 228.687 12.2546 225.986 12.2546C223.284 12.2546 221.306 12.8818 219.858 14.1844C218.411 15.4871 217.784 17.4169 217.784 19.8775V24.0749C217.765 24.9871 217.878 25.8973 218.121 26.7767C218.435 27.8423 218.997 28.8181 219.762 29.6232C221.113 30.9741 223.139 31.6978 225.937 31.6978C229.652 31.6978 232.209 30.5399 233.609 28.2723C233.994 27.6451 233.994 27.1627 233.609 26.7767L233.174 26.4872L231.92 25.8118C231.777 25.704 231.613 25.627 231.438 25.5855C231.264 25.544 231.083 25.5389 230.907 25.5706C230.573 25.6899 230.297 25.9312 230.135 26.246C229.932 26.5512 229.689 26.8272 229.411 27.0662C228.591 27.7899 227.433 28.1276 225.937 28.1276C224.442 28.1276 223.622 27.8381 222.946 27.2109L222.801 27.0662C222.479 26.7375 222.23 26.3436 222.072 25.9109C221.914 25.4782 221.85 25.0167 221.885 24.5574V23.2547H232.595ZM221.885 19.3468C221.85 18.8459 221.927 18.3434 222.11 17.876C222.294 17.4086 222.579 16.9881 222.946 16.645C223.814 15.9792 224.895 15.6532 225.986 15.7283C227.336 15.7283 228.35 16.0178 229.025 16.645C229.392 16.9881 229.677 17.4086 229.861 17.876C230.045 18.3434 230.122 18.8459 230.087 19.3468V20.1187H221.885V19.3468Z" fill="#1DA1F2"/>
<path d="M252.811 13.0265C252.714 12.8335 252.376 12.7853 251.797 12.7853H250.398C249.939 12.7429 249.476 12.809 249.047 12.9783C248.746 13.2094 248.526 13.5305 248.42 13.895L245.139 22.4345L244.657 24.0749C244.56 24.4609 244.512 24.7986 244.416 25.0881C244.411 25.2532 244.379 25.4164 244.319 25.5706C244.314 25.7873 244.265 26.0007 244.174 26.1978H244.03V25.9083C243.981 25.7153 243.933 25.5223 243.885 25.2328C243.838 24.9556 243.774 24.6816 243.692 24.4126L243.403 23.3995C243.327 23.0506 243.213 22.7109 243.065 22.3863L239.784 13.895C239.713 13.5277 239.506 13.2007 239.205 12.9783C238.758 12.8131 238.281 12.7473 237.806 12.7853H236.407C235.828 12.7853 235.538 12.8335 235.394 13.0265C235.249 13.2195 235.297 13.509 235.49 14.0397L240.315 25.9083L242.052 30.2022C242.149 30.5028 242.344 30.7617 242.607 30.9369C242.87 31.1121 243.184 31.1933 243.499 31.1671H244.705C245.024 31.1803 245.338 31.0946 245.606 30.9219C245.874 30.7491 246.082 30.4977 246.201 30.2022L248.71 24.0267L252.762 13.9914C252.907 13.509 252.955 13.1713 252.811 13.0265Z" fill="#1DA1F2"/>
<path d="M269.021 23.2547C270.083 23.2547 270.613 22.7723 270.613 21.7591V19.588C270.652 17.9645 270.161 16.3726 269.214 15.0529L268.539 14.2809C267.14 12.93 265.113 12.2546 262.412 12.2546C259.71 12.2546 257.732 12.8818 256.284 14.1844C254.837 15.4871 254.21 17.4169 254.21 19.8775V24.0749C254.21 26.3907 254.885 28.2723 256.188 29.6232C257.49 30.9741 259.565 31.6978 262.363 31.6978C266.078 31.6978 268.635 30.5399 270.034 28.2723C270.517 27.4522 270.372 26.8732 269.6 26.4872L268.346 25.8118C268.203 25.704 268.039 25.627 267.864 25.5855C267.69 25.544 267.509 25.5389 267.333 25.5706C266.999 25.6899 266.723 25.9312 266.561 26.246C265.724 27.5004 264.325 28.1276 262.363 28.1276C261.061 28.1276 260.047 27.8381 259.372 27.2109C258.697 26.5837 258.311 25.7635 258.311 24.5574V23.2547H269.021ZM258.311 20.1187V19.3468C258.276 18.8459 258.353 18.3434 258.536 17.876C258.72 17.4086 259.005 16.9881 259.372 16.645C260.24 15.9792 261.321 15.6532 262.412 15.7283C263.762 15.7283 264.776 16.0178 265.499 16.645L265.789 17.031C266.297 17.6928 266.553 18.5135 266.513 19.3468V20.1187H258.311Z" fill="#1DA1F2"/>
<path d="M287.741 14.0879C286.535 12.8335 284.653 12.2546 282.193 12.2546C279.805 12.2007 277.429 12.6103 275.197 13.4607C274.767 13.5937 274.382 13.8444 274.087 14.1844C273.868 14.5818 273.767 15.0341 273.798 15.4871V30.0575C273.775 30.3511 273.861 30.6429 274.039 30.8776C274.16 30.9739 274.299 31.0448 274.449 31.0862C274.598 31.1277 274.754 31.1388 274.907 31.1189H276.837C277.271 31.1189 277.561 31.0706 277.706 30.8776C277.883 30.6429 277.969 30.3511 277.947 30.0575V16.7897C277.947 16.645 277.995 16.5485 278.188 16.452C279.291 16.1654 280.426 16.0195 281.565 16.0178C284.171 16.0178 285.425 17.1757 285.425 19.4915V30.0575C285.403 30.3511 285.488 30.6429 285.666 30.8776C285.811 31.0706 286.1 31.1189 286.486 31.1189H288.465C288.618 31.1388 288.774 31.1277 288.923 31.0862C289.072 31.0448 289.212 30.9739 289.333 30.8776C289.511 30.6429 289.597 30.3511 289.574 30.0575V19.3468C289.574 17.0792 288.947 15.2941 287.741 14.0879Z" fill="#1DA1F2"/>
<path d="M295.557 28.2723C295.194 28.0104 294.748 27.8903 294.302 27.9346H294.158C293.713 27.8988 293.27 28.0182 292.903 28.2723C292.637 28.6332 292.517 29.081 292.565 29.5267V29.7197C292.565 30.3469 292.662 30.7811 292.903 30.9741C293.08 31.1104 293.281 31.2105 293.497 31.2684C293.712 31.3264 293.937 31.3412 294.158 31.3118H294.302C294.93 31.3118 295.364 31.2154 295.557 30.9741C295.75 30.7329 295.894 30.3469 295.894 29.7197V29.5267C295.943 29.081 295.823 28.6332 295.557 28.2723Z" fill="#3B5998"/>
<path d="M308.053 19.2985C307.232 18.4301 305.93 18.0441 304.193 18.0441C302.546 17.9968 300.907 18.2756 299.368 18.8643C299.059 18.9507 298.788 19.1374 298.596 19.395C298.442 19.657 298.375 19.9609 298.403 20.2634V30.3951C298.403 30.6846 298.452 30.8776 298.596 30.9741C298.764 31.0933 298.971 31.145 299.175 31.1188H300.526C300.627 31.1498 300.734 31.1528 300.836 31.1274C300.938 31.102 301.031 31.0493 301.106 30.9749C301.18 30.9005 301.233 30.8072 301.258 30.705C301.284 30.6029 301.281 30.4957 301.25 30.3951V21.1801C301.249 21.1237 301.267 21.0686 301.303 21.0245C301.338 20.9805 301.387 20.9501 301.443 20.9389C302.216 20.7446 303.01 20.6474 303.807 20.6494C305.592 20.6494 306.46 21.4213 306.46 23.0617V30.3951C306.46 30.6846 306.509 30.8776 306.653 30.9741C306.821 31.0933 307.028 31.145 307.232 31.1188H308.583C308.787 31.1365 308.991 31.0856 309.162 30.9741C309.281 30.8061 309.333 30.5995 309.307 30.3951V22.9652C309.307 21.3731 308.921 20.1669 308.053 19.2985Z" fill="#3B5998"/>
<path d="M314.807 13.123C314.711 12.9782 314.518 12.93 314.228 12.93H312.877C312.588 12.93 312.395 12.9782 312.298 13.123C312.179 13.2909 312.127 13.4976 312.153 13.7019V30.3951C312.122 30.4957 312.12 30.6029 312.145 30.705C312.17 30.8072 312.223 30.9005 312.297 30.9749C312.372 31.0493 312.465 31.1021 312.567 31.1274C312.669 31.1528 312.777 31.1498 312.877 31.1188H314.228C314.432 31.145 314.639 31.0933 314.807 30.9741C314.952 30.8776 315 30.6846 315 30.3951V13.7019C315 13.4125 314.952 13.2195 314.807 13.123Z" fill="#3B5998"/>
<g style="mix-blend-mode:overlay" opacity="0.38">
<path d="M179.717 6.22378C179.827 6.35734 179.91 6.51145 179.959 6.67712C180.009 6.84279 180.025 7.0167 180.007 7.1887V8.92557C180.024 9.09005 180.007 9.2563 179.957 9.41399C179.908 9.57169 179.826 9.71746 179.717 9.84225C179.594 9.95333 179.449 10.0367 179.291 10.0866C179.132 10.1366 178.965 10.1519 178.801 10.1317H175.52C173.783 8.78083 172.095 7.38169 170.502 5.98254H178.801C179.235 5.98254 179.573 6.03079 179.717 6.22378Z" fill="white"/>
</g>
<g style="mix-blend-mode:overlay" opacity="0.38">
<path d="M193.95 19.5398V20.7459L189.801 18.9126C188.016 18.0441 186.279 17.1275 184.542 16.1143C182.805 15.1011 181.985 14.6186 180.779 13.7985C182.13 12.737 183.963 12.2546 186.327 12.2546C191.393 12.2546 193.95 14.6669 193.95 19.5398Z" fill="white"/>
</g>
<g style="mix-blend-mode:overlay" opacity="0.38">
<path d="M207.604 12.4476C207.709 12.565 207.788 12.7026 207.838 12.852C207.888 13.0013 207.907 13.1592 207.893 13.316V14.9081C207.908 15.0576 207.89 15.2085 207.84 15.35C207.789 15.4914 207.708 15.6199 207.602 15.7261C207.495 15.8324 207.367 15.9136 207.225 15.9641C207.084 16.0145 206.933 16.0329 206.784 16.0178H205.481C204.358 15.9801 203.236 16.1102 202.152 16.4038C202.045 16.4157 201.947 16.4666 201.876 16.5468C201.804 16.627 201.765 16.7307 201.766 16.838V23.5442C200.367 23.1582 199.016 22.6758 197.665 22.1933V15.3423C197.64 14.9107 197.723 14.4796 197.906 14.0879C198.212 13.7266 198.613 13.459 199.064 13.316C200.753 12.6405 202.972 12.3028 205.626 12.2546H206.784C207.071 12.2182 207.362 12.2867 207.604 12.4476Z" fill="white"/>
</g>
<g style="mix-blend-mode:overlay" opacity="0.38">
<path d="M214.069 12.9783C214.168 13.0981 214.24 13.2373 214.282 13.3869C214.323 13.5365 214.333 13.6931 214.31 13.8467V26.3425L210.209 25.667V13.8467C210.188 13.5381 210.273 13.2316 210.45 12.9783C210.692 12.8174 210.983 12.7489 211.27 12.7853H213.249C213.536 12.7489 213.827 12.8174 214.069 12.9783Z" fill="white"/>
</g>
<g style="mix-blend-mode:overlay" opacity="0.38">
<path d="M214.069 6.36851C214.407 6.65799 214.551 7.23694 214.551 8.00888V8.34661C214.551 9.16679 214.407 9.74575 214.069 10.0352C213.587 10.4025 212.984 10.5747 212.38 10.5177H212.139C211.536 10.5656 210.937 10.3942 210.45 10.0352C210.113 9.74575 209.968 9.16679 209.968 8.34661V8.00888C209.909 7.42755 210.063 6.84467 210.402 6.36851C210.74 6.03079 211.319 5.88605 212.139 5.88605H212.38C213.2 5.88605 213.779 6.03079 214.069 6.36851Z" fill="white"/>
</g>
<g style="mix-blend-mode:overlay" opacity="0.38">
<path d="M233.174 26.4872L233.609 26.7767C232.225 26.9053 230.826 27.0018 229.411 27.0662C229.689 26.8271 229.932 26.5512 230.135 26.246C230.297 25.9312 230.573 25.6898 230.907 25.5705C231.083 25.5389 231.264 25.544 231.438 25.5855C231.613 25.627 231.777 25.704 231.92 25.8118L233.174 26.4872Z" fill="white"/>
</g>
<g style="mix-blend-mode:overlay" opacity="0.38">
<g style="mix-blend-mode:overlay" opacity="0.38">
<path d="M232.113 14.2809C230.714 12.93 228.687 12.2546 225.986 12.2546C223.284 12.2546 221.306 12.8818 219.858 14.1844C218.411 15.4871 217.784 17.4169 217.784 19.8775V24.0749C217.765 24.9871 217.878 25.8973 218.121 26.7767C219.665 26.9214 221.209 27.0179 222.801 27.0662C222.479 26.7375 222.23 26.3436 222.072 25.9109C221.914 25.4782 221.85 25.0167 221.885 24.5574V23.2547H232.595C233.657 23.2547 234.187 22.7723 234.187 21.7591V19.588C234.225 18.6084 234.059 17.6316 233.703 16.7186C233.346 15.8055 232.804 14.9757 232.113 14.2809ZM230.087 20.1187H221.885V19.3468C221.85 18.8459 221.927 18.3434 222.11 17.876C222.294 17.4086 222.579 16.9881 222.946 16.645C223.814 15.9792 224.895 15.6532 225.986 15.7283C227.336 15.7283 228.35 16.0178 229.025 16.645C229.392 16.9881 229.677 17.4086 229.861 17.876C230.045 18.3434 230.122 18.8459 230.087 19.3468V20.1187Z" fill="white"/>
</g>
</g>
<g style="mix-blend-mode:overlay" opacity="0.38">
<path d="M243.644 24.4126C243.726 24.6816 243.79 24.9555 243.837 25.2328L240.315 25.9082L235.49 14.0396C235.297 13.5089 235.297 13.1712 235.394 13.0265C235.49 12.8817 235.828 12.7852 236.407 12.7852H237.758C238.233 12.7472 238.71 12.8131 239.157 12.9782C239.458 13.2006 239.664 13.5277 239.736 13.8949L243.017 22.3863C243.165 22.7109 243.278 23.0506 243.354 23.3994L243.644 24.4126Z" fill="white"/>
</g>
<g style="mix-blend-mode:overlay" opacity="0.38">
<path d="M252.811 13.0265C252.955 13.1713 252.907 13.509 252.762 13.9914L248.71 24.0267L244.416 25.0881C244.512 24.7986 244.56 24.4609 244.657 24.0749L245.139 22.4346L248.42 13.895C248.526 13.5305 248.746 13.2094 249.047 12.9783C249.476 12.809 249.939 12.7429 250.398 12.7853H251.797C252.376 12.7853 252.714 12.8335 252.811 13.0265Z" fill="white"/>
</g>
<g style="mix-blend-mode:overlay" opacity="0.38">
<path d="M269.214 15.0529L265.789 17.031L265.499 16.645C264.776 16.0178 263.762 15.7283 262.412 15.7283C261.321 15.6532 260.24 15.9792 259.372 16.645C259.005 16.9881 258.72 17.4086 258.536 17.876C258.353 18.3434 258.276 18.8459 258.311 19.3468V20.1187H259.517C257.78 20.8907 255.995 21.5661 254.21 22.2416V19.8775C254.21 17.4169 254.885 15.5353 256.284 14.1844C257.683 12.8335 259.758 12.2546 262.412 12.2546C265.065 12.2546 267.14 12.93 268.539 14.2809L269.214 15.0529Z" fill="white"/>
</g>
<defs>
<linearGradient id="paint0_linear_2_881" x1="7.61811" y1="5.804" x2="16.5726" y2="37.5935" gradientUnits="userSpaceOnUse">
<stop stop-color="#1CFFCE"/>
<stop offset="0.59" stop-color="#1DA4F1"/>
<stop offset="0.99" stop-color="#3B5998"/>
</linearGradient>
<linearGradient id="paint1_linear_2_881" x1="444.779" y1="113.958" x2="1301.88" y2="1291.14" gradientUnits="userSpaceOnUse">
<stop stop-color="#1CFFCE"/>
<stop offset="0.59" stop-color="#1DA4F1"/>
<stop offset="0.99" stop-color="#3B5998"/>
</linearGradient>
<linearGradient id="paint2_linear_2_881" x1="730.556" y1="-104.891" x2="1804.63" y2="1126.86" gradientUnits="userSpaceOnUse">
<stop stop-color="#1CFFCE"/>
<stop offset="0.59" stop-color="#1DA4F1"/>
<stop offset="0.99" stop-color="#3B5998"/>
</linearGradient>
<linearGradient id="paint3_linear_2_881" x1="22.4394" y1="21.0016" x2="28.9622" y2="38.9203" gradientUnits="userSpaceOnUse">
<stop stop-color="#1DA4F1"/>
<stop offset="0.26" stop-color="#1CA1EE"/>
<stop offset="1" stop-color="#3B5998"/>
</linearGradient>
</defs>
</svg>
